<svg width="45" height="45" viewBox="0 0 45 45" fill="none" xmlns="http://www.w3.org/2000/svg">
<g clip-path="url(#clip0_107_31)">
<g filter="url(#filter0_d_107_31)">
<path d="M22.5 8C24.4891 8 26.3968 8.79018 27.8033 10.1967C29.2098 11.6032 30 13.5109 30 15.5C30 17.4891 29.2098 19.3968 27.8033 20.8033C26.3968 22.2098 24.4891 23 22.5 23C20.5109 23 18.6032 22.2098 17.1967 20.8033C15.7902 19.3968 15 17.4891 15 15.5C15 13.5109 15.7902 11.6032 17.1967 10.1967C18.6032 8.79018 20.5109 8 22.5 8ZM22.5 26.75C30.7875 26.75 37.5 30.1062 37.5 34.25V38H7.5V34.25C7.5 30.1062 14.2125 26.75 22.5 26.75Z" fill="white"/>
</g>
</g>
<defs>
<filter id="filter0_d_107_31" x="3.5" y="8" width="38" height="38" filterUnits="userSpaceOnUse" color-interpolation-filters="sRGB">
<feFlood flood-opacity="0" result="BackgroundImageFix"/>
<feColorMatrix in="SourceAlpha" type="matrix" values="0 0 0 0 0 0 0 0 0 0 0 0 0 0 0 0 0 0 127 0" result="hardAlpha"/>
<feOffset dy="4"/>
<feGaussianBlur stdDeviation="2"/>
<feComposite in2="hardAlpha" operator="out"/>
<feColorMatrix type="matrix" values="0 0 0 0 0 0 0 0 0 0 0 0 0 0 0 0 0 0 0.25 0"/>
<feBlend mode="normal" in2="BackgroundImageFix" result="effect1_dropShadow_107_31"/>
<feBlend mode="normal" in="SourceGraphic" in2="effect1_dropShadow_107_31" result="shape"/>
</filter>
<clipPath id="clip0_107_31">
<rect width="45" height="45" fill="white"/>
</clipPath>
</defs>
</svg>
