<svg width="40" height="40" viewBox="0 0 40 40" fill="none" xmlns="http://www.w3.org/2000/svg">
<g clip-path="url(#clip0_138_36)">
<path d="M12.83 17.27C12.5112 16.8987 12.1123 16.6047 11.6633 16.41C11.1956 16.2 10.6467 16.095 10.0167 16.095C9.07167 16.095 8.84333 16.2 8.38 16.41C7.91667 16.62 7.53 16.9067 7.22667 17.27C6.92333 17.6344 6.69389 18.0661 6.53833 18.565C6.38389 19.0628 6.30667 19.5961 6.30667 20.165C6.30667 20.7328 6.38444 21.2617 6.54 21.7517C6.69444 22.2406 6.92333 22.6667 7.22667 23.03C7.53111 23.3956 7.91556 23.68 8.38 23.8833C8.84444 24.0867 9.39 24.1889 10.0167 24.19C10.9583 24.19 11.195 24.0867 11.6633 23.8833C12.1322 23.6789 12.5211 23.3944 12.83 23.03C13.14 22.6667 13.3694 22.2406 13.5183 21.7517C13.6683 21.2628 13.7433 20.7339 13.7433 20.165C13.7475 19.6235 13.6717 19.0843 13.5183 18.565C13.3829 18.0896 13.1483 17.6482 12.83 17.27ZM11.2217 21.9533C10.9772 22.3667 10.5756 22.5733 10.0167 22.5733C9.46778 22.5733 9.07167 22.3667 8.82833 21.9533C8.58389 21.5389 8.46167 20.9428 8.46167 20.165C8.46167 18.9983 8.58333 18.7917 8.82833 18.3767C9.07278 17.9633 9.46889 17.7567 10.0167 17.7567C10.5756 17.7567 10.9772 17.9633 11.2217 18.3767C11.4661 18.7911 11.5883 19.3872 11.5883 20.165C11.5883 20.9428 11.4661 21.5389 11.2217 21.9533ZM31.0383 20.57L30.8883 13.2533C31.2688 13.1939 31.6533 13.1638 32.0383 13.1633C32.4283 13.1633 32.8178 13.1933 33.2067 13.2533L33.0567 20.57C32.7067 20.6289 32.3728 20.6583 32.055 20.6583C31.7141 20.6581 31.3739 20.628 31.0383 20.5683M33.2367 22.9017C33.2367 23.2706 33.2067 23.6394 33.1467 24.0083C32.7859 24.0682 32.4207 24.0983 32.055 24.0983C31.6842 24.0992 31.3141 24.0691 30.9483 24.0083C30.8884 23.6475 30.8583 23.2824 30.8583 22.9167C30.8583 22.5578 30.8883 22.1883 30.9483 21.8083C31.3091 21.7484 31.6743 21.7183 32.04 21.7183C32.3989 21.7183 32.7678 21.7483 33.1467 21.8083C33.2067 22.1872 33.2367 22.5517 33.2367 22.9017ZM27.865 16.185C28.215 16.185 28.5694 16.2144 28.9283 16.2733V23.7083C28.6083 23.8183 28.1867 23.9256 27.6633 24.03C26.6387 24.226 25.5875 24.239 24.5583 24.0683C24.1126 23.9995 23.6898 23.8252 23.325 23.56C22.9694 23.3 22.6878 22.9206 22.48 22.4217C22.27 21.9228 22.165 21.26 22.165 20.4333V16.275C22.5165 16.2166 22.8721 16.1865 23.2283 16.185C23.5761 16.185 23.93 16.215 24.29 16.275V20.375C24.29 20.7828 24.3222 21.1194 24.3867 21.385C24.436 21.6151 24.5388 21.8303 24.6867 22.0133C24.8198 22.1669 24.9929 22.2805 25.1867 22.3417C25.3867 22.4061 25.6211 22.4383 25.89 22.4383C26.2589 22.4383 26.5683 22.4039 26.8183 22.335V16.275C27.1643 16.2175 27.5143 16.1874 27.865 16.185ZM20.595 20.6567C20.6839 20.9067 20.7283 21.2111 20.7283 21.57C20.7311 21.9289 20.651 22.2836 20.4943 22.6064C20.3376 22.9293 20.1086 23.2117 19.825 23.4317C19.5306 23.6672 19.1739 23.8522 18.755 23.9867C18.335 24.12 17.8611 24.1867 17.3333 24.1867C17.1137 24.1881 16.8941 24.1809 16.675 24.165C16.4815 24.1512 16.2889 24.1262 16.0983 24.09C15.915 24.0554 15.7331 24.0132 15.5533 23.9633C15.356 23.9079 15.1614 23.8434 14.97 23.77C14.991 23.4939 15.0385 23.2204 15.1117 22.9533C15.186 22.6789 15.2835 22.4112 15.4033 22.1533C15.7322 22.2833 16.0439 22.3806 16.3383 22.445C16.6328 22.5117 16.9394 22.5444 17.2583 22.5433C17.3983 22.5433 17.5506 22.5306 17.715 22.505C17.8728 22.4826 18.0266 22.4377 18.1717 22.3717C18.3032 22.3093 18.4219 22.2228 18.5217 22.1167C18.6208 22.0031 18.6722 21.8556 18.665 21.705C18.665 21.465 18.5928 21.2928 18.4483 21.1883C18.2616 21.0654 18.057 20.972 17.8417 20.9117L16.915 20.6417C16.3561 20.4828 15.9194 20.2461 15.605 19.9317C15.2917 19.6172 15.1344 19.1461 15.1333 18.5183C15.1333 17.7606 15.4056 17.1672 15.95 16.7383C16.4933 16.3094 17.2333 16.095 18.17 16.095C18.5589 16.095 18.9433 16.1294 19.3233 16.1983C19.7022 16.2683 20.0861 16.3733 20.475 16.5133C20.4518 16.7871 20.4015 17.0578 20.325 17.3217C20.2559 17.5752 20.161 17.8209 20.0417 18.055C19.783 17.9507 19.518 17.8628 19.2483 17.7917C18.9498 17.7162 18.6429 17.6787 18.335 17.68C17.9961 17.68 17.7317 17.7322 17.5417 17.8367C17.4514 17.8844 17.3767 17.957 17.3264 18.0459C17.2762 18.1349 17.2526 18.2364 17.2583 18.3383C17.2583 18.5572 17.3256 18.7117 17.46 18.8017C17.5944 18.8917 17.7867 18.9767 18.0367 19.0567L18.8883 19.3117C19.1683 19.3917 19.4206 19.4889 19.645 19.6033C19.8694 19.7178 20.0611 19.8594 20.22 20.0283C20.3789 20.1972 20.5039 20.4067 20.595 20.6567ZM20 0C8.955 0 0 8.955 0 20C0 31.045 8.955 40 20 40C31.0467 40 40 31.045 40 20C40 8.955 31.0467 0 20 0ZM20 38C10.0583 38 2 29.9417 2 20C2 10.0583 10.0583 2 20 2C29.9417 2 38 10.0583 38 20C38 29.9417 29.9417 38 20 38Z" fill="white"/>
</g>
<defs>
<clipPath id="clip0_138_36">
<rect width="40" height="40" fill="white"/>
</clipPath>
</defs>
</svg>
