<svg width="45" height="45" viewBox="0 0 45 45" fill="none" xmlns="http://www.w3.org/2000/svg">
<path fill-rule="evenodd" clip-rule="evenodd" d="M4.21875 11.25C4.21875 10.877 4.36691 10.5194 4.63063 10.2556C4.89435 9.99191 5.25204 9.84375 5.625 9.84375H39.375C39.748 9.84375 40.1056 9.99191 40.3694 10.2556C40.6331 10.5194 40.7812 10.877 40.7812 11.25C40.7812 11.623 40.6331 11.9806 40.3694 12.2444C40.1056 12.5081 39.748 12.6562 39.375 12.6562H5.625C5.25204 12.6562 4.89435 12.5081 4.63063 12.2444C4.36691 11.9806 4.21875 11.623 4.21875 11.25ZM4.21875 18.75C4.21875 18.377 4.36691 18.0194 4.63063 17.7556C4.89435 17.4919 5.25204 17.3438 5.625 17.3438H39.375C39.748 17.3438 40.1056 17.4919 40.3694 17.7556C40.6331 18.0194 40.7812 18.377 40.7812 18.75C40.7812 19.123 40.6331 19.4806 40.3694 19.7444C40.1056 20.0081 39.748 20.1562 39.375 20.1562H5.625C5.25204 20.1562 4.89435 20.0081 4.63063 19.7444C4.36691 19.4806 4.21875 19.123 4.21875 18.75ZM4.21875 26.25C4.21875 25.877 4.36691 25.5194 4.63063 25.2556C4.89435 24.9919 5.25204 24.8438 5.625 24.8438H20.625C20.998 24.8438 21.3556 24.9919 21.6194 25.2556C21.8831 25.5194 22.0312 25.877 22.0312 26.25C22.0312 26.623 21.8831 26.9806 21.6194 27.2444C21.3556 27.5081 20.998 27.6562 20.625 27.6562H5.625C5.25204 27.6562 4.89435 27.5081 4.63063 27.2444C4.36691 26.9806 4.21875 26.623 4.21875 26.25ZM4.21875 33.75C4.21875 33.377 4.36691 33.0194 4.63063 32.7556C4.89435 32.4919 5.25204 32.3438 5.625 32.3438H20.625C20.998 32.3438 21.3556 32.4919 21.6194 32.7556C21.8831 33.0194 22.0312 33.377 22.0312 33.75C22.0312 34.123 21.8831 34.4806 21.6194 34.7444C21.3556 35.0081 20.998 35.1562 20.625 35.1562H5.625C5.25204 35.1562 4.89435 35.0081 4.63063 34.7444C4.36691 34.4806 4.21875 34.123 4.21875 33.75Z" fill="white"/>
<path d="M35.3906 26.4711C38.4919 28.2617 40.0406 29.158 40.2694 30.448C40.3264 30.7711 40.3264 31.1017 40.2694 31.4249C40.0425 32.7186 38.4919 33.613 35.3906 35.4036C32.2894 37.1942 30.7406 38.0886 29.5069 37.6405C29.1987 37.5285 28.9126 37.3635 28.6613 37.153C27.6563 36.3092 27.6562 34.5186 27.6562 30.9374C27.6562 27.3561 27.6563 25.5674 28.6613 24.7236C28.9125 24.5117 29.1994 24.3486 29.5069 24.2361C30.7388 23.7861 32.2894 24.6824 35.3906 26.4711Z" fill="white"/>
</svg>
